M48
METRIC,0000.00
T01C0.3
T02C0.9
%
T01
X+000098Y-000136
X-000087Y-000133
X-000101Y+000126
X+000093Y+000129
X+000499Y+000254
X+000785Y+000476
X+000950Y+000950
X+001409Y+000727
X+001733Y+000560
X+001112Y-000312
X+001414Y+001950
X+002695Y+001697
X+002851Y+002618
X-001011Y+001603
X-002024Y+001732
X-001839Y+002279
X-001839Y+002622
X-001401Y-000230
T02
X-001575Y-001650
X+001575Y-001523
X+001575Y-001777
T00
M30
