G04 DipTrace 3.2.0.1*
G04 Верхний.gbr*
%MOMM*%
G04 #@! TF.FileFunction,Copper,L1,Top*
G04 #@! TF.Part,Single*
%AMOUTLINE3*
4,1,20,
0.0,5.75,
4.0,5.75,
6.0,3.0,
6.0,-3.0,
4.0,-5.75,
-4.0,-5.75,
-6.0,-3.0,
-6.0,3.0,
-4.0,5.75,
0.0,5.75,
0.0,2.0,
-1.5,2.0,
-2.0,1.0,
-2.0,-1.0,
-1.5,-2.0,
1.5,-2.0,
2.0,-1.0,
2.0,1.0,
1.5,2.0,
0.0,2.0,
0.0,5.75,
0*%
%ADD29C,0.9*%
%ADD30C,0.3*%
G04 #@! TA.AperFunction,Conductor*
%ADD10C,0.25*%
%ADD13C,0.4*%
%ADD15C,0.6*%
%ADD23R,1.0X0.6*%
G04 #@! TA.AperFunction,ComponentPad*
%ADD27C,2.3*%
G04 #@! TA.AperFunction,ViaPad*
%ADD31C,0.7*%
%ADD58OUTLINE3*%
%FSLAX35Y35*%
G04*
G71*
G90*
G75*
G01*
G04 Top*
%LPD*%
X-86657Y-132897D2*
D10*
Y-63343D1*
X-105000Y-45000D1*
X784663Y476047D2*
D13*
Y1250537D1*
Y1843337D1*
X1554753Y2613427D1*
X2856077D1*
X2851277Y2618227D1*
X-1400560Y-230147D2*
D10*
Y942170D1*
X-1261323Y1081407D1*
X-1092193Y1250537D1*
X784663D1*
Y476047D2*
D13*
X909947Y350763D1*
X1523710D1*
X1732730Y559783D1*
X-2024237Y1731510D2*
D10*
X-1911427D1*
X-1261323Y1081407D1*
X-100503Y125533D2*
Y49497D1*
X-105000Y45000D1*
X93320Y128610D2*
Y56680D1*
X105000Y45000D1*
X97543Y-135583D2*
Y-52457D1*
X105000Y-45000D1*
X1112181Y-312360D2*
D15*
X2088597D1*
X2696713Y295757D1*
Y1698890D1*
X2694753Y1696930D1*
X949937Y949520D2*
Y1772050D1*
X1322137Y2144250D1*
X2247433D1*
X2694753Y1696930D1*
X-1838977Y2621703D2*
X-1848113D1*
X-2609493Y1860323D1*
Y-478480D1*
X-2133453Y-954520D1*
X558134D1*
X1112181Y-400473D1*
Y-312360D1*
X1414353Y1950063D2*
D10*
Y732923D1*
X1408660Y727230D1*
X-1011493Y1603057D2*
X-1163263D1*
X-1838977Y2278773D1*
D29*
X784663Y476047D3*
D3*
X97543Y-135583D3*
X-86657Y-132897D3*
X-100503Y125533D3*
X93320Y128610D3*
X1414353Y1950063D3*
D31*
X499207Y253860D3*
D29*
X1408660Y727230D3*
X949937Y949520D3*
X1112181Y-312360D3*
X2851277Y2618227D3*
X1732730Y559783D3*
X2694753Y1696930D3*
X-1400560Y-230147D3*
X-2024237Y1731510D3*
X-1011493Y1603057D3*
X-1838977Y2621703D3*
Y2278773D3*
D23*
X-105000Y45000D3*
X105000D3*
X-105000Y-45000D3*
X105000D3*
D58*
X0Y-11000D3*
D27*
X-1575000Y-1650000D3*
X1575000Y-1523000D3*
Y-1777000D3*
G04 Top Clear*
%LPC*%
D30*
X784663Y476047D3*
D3*
X97543Y-135583D3*
X-86657Y-132897D3*
X-100503Y125533D3*
X93320Y128610D3*
X1414353Y1950063D3*
X499207Y253860D3*
X1408660Y727230D3*
X949937Y949520D3*
X1112181Y-312360D3*
X2851277Y2618227D3*
X1732730Y559783D3*
X2694753Y1696930D3*
X-1400560Y-230147D3*
X-2024237Y1731510D3*
X-1011493Y1603057D3*
X-1838977Y2621703D3*
Y2278773D3*
D29*
X-1575000Y-1650000D3*
X1575000Y-1523000D3*
Y-1777000D3*
M02*
