G04 DipTrace 3.2.0.1*
G04 Нижняямаркировка.gbr*
%MOMM*%
G04 #@! TF.FileFunction,Legend,Bot*
G04 #@! TF.Part,Single*
%ADD10C,0.25*%
%ADD21O,0.23961X0.23999*%
%ADD28C,0.39108*%
%ADD53C,0.19608*%
%ADD54C,0.15686*%
%FSLAX35Y35*%
G04*
G71*
G90*
G75*
G01*
G04 BotSilk*
%LPD*%
X1847183Y732581D2*
D10*
X2167463D1*
X1847183Y713499D2*
X2167463D1*
X1847183D2*
X1847319Y833733D1*
X2167463Y713499D2*
X2167327Y833733D1*
X1280237Y1117885D2*
X1440235D1*
X1280237Y1237882D2*
X1440235D1*
D21*
X1186237Y1177883D3*
X1283107Y874745D2*
D10*
X1443105D1*
X1283107Y994742D2*
X1443105D1*
D21*
X1189107Y934743D3*
X-1396228Y-610175D2*
D10*
X-1333246Y-610232D1*
X-1331753Y-610740D2*
X-1331863Y-673684D1*
X649950Y2950000D2*
X-649950D1*
Y750050D1*
X649950D1*
Y2950000D1*
X-2574992Y2675000D2*
X-2125008D1*
Y2225000D1*
X-2574992D1*
Y2675000D1*
X2125008D2*
X2574992D1*
Y2225000D1*
X2125008D1*
Y2675000D1*
X-1343212Y-850000D2*
X1346930D1*
Y-2450000D1*
X-1343212D1*
Y-850000D1*
X-1643018Y-1290000D2*
X-1342874D1*
X-1643018Y-2010000D2*
X-1342874D1*
X-1643018Y-1290000D2*
Y-2010000D1*
X1342874Y-1290000D2*
X1643018D1*
X1342874Y-2010000D2*
X1643018D1*
Y-1290000D2*
Y-2010000D1*
D28*
X932225Y-11810D3*
X1069568Y1556D2*
D10*
X1069607Y301535D1*
X1149564Y1523D2*
Y301535D1*
X1069607D2*
X1149564D1*
X1069568Y1556D2*
X1149564Y1523D1*
X1630948Y2833094D2*
D53*
X1636985Y2845167D1*
X1649198Y2857380D1*
X1661271Y2863417D1*
X1685558D1*
X1697771Y2857380D1*
X1709844Y2845167D1*
X1716021Y2833094D1*
X1722058Y2814844D1*
Y2784380D1*
X1716021Y2766270D1*
X1709844Y2754057D1*
X1697771Y2741984D1*
X1685558Y2735807D1*
X1661271D1*
X1649198Y2741984D1*
X1636985Y2754057D1*
X1630948Y2766270D1*
X1591732Y2838990D2*
X1579519Y2845167D1*
X1561269Y2863276D1*
Y2735807D1*
X1681660Y790293D2*
X1669587Y796330D1*
X1657373Y808543D1*
X1651337Y820616D1*
Y844903D1*
X1657373Y857116D1*
X1669587Y869189D1*
X1681660Y875366D1*
X1699910Y881403D1*
X1730373D1*
X1748483Y875366D1*
X1760696Y869189D1*
X1772770Y857116D1*
X1778946Y844903D1*
Y820616D1*
X1772770Y808543D1*
X1760696Y796330D1*
X1748483Y790293D1*
X1681800Y744901D2*
X1675764D1*
X1663550Y738864D1*
X1657514Y732828D1*
X1651477Y720614D1*
Y696328D1*
X1657514Y684254D1*
X1663550Y678218D1*
X1675764Y672041D1*
X1687837D1*
X1700050Y678218D1*
X1718160Y690291D1*
X1778946Y751077D1*
Y666004D1*
X-2233720Y1992933D2*
X-2245793Y1998970D1*
X-2258007Y2011183D1*
X-2264043Y2023256D1*
Y2047543D1*
X-2258007Y2059756D1*
X-2245793Y2071829D1*
X-2233720Y2078006D1*
X-2215470Y2084043D1*
X-2185007D1*
X-2166897Y2078006D1*
X-2154684Y2071829D1*
X-2142610Y2059756D1*
X-2136434Y2047543D1*
Y2023256D1*
X-2142610Y2011183D1*
X-2154684Y1998970D1*
X-2166897Y1992933D1*
X-2263903Y1941504D2*
Y1874821D1*
X-2215330Y1911181D1*
Y1892931D1*
X-2209293Y1880858D1*
X-2203257Y1874821D1*
X-2185007Y1868644D1*
X-2172934D1*
X-2154684Y1874821D1*
X-2142470Y1886894D1*
X-2136434Y1905144D1*
X-2136433Y1923394D1*
X-2142470Y1941504D1*
X-2148647Y1947540D1*
X-2160720Y1953717D1*
X1240450Y-395513D2*
X1246486Y-383440D1*
X1258700Y-371227D1*
X1270773Y-365190D1*
X1295059D1*
X1307273Y-371227D1*
X1319346Y-383440D1*
X1325523Y-395513D1*
X1331559Y-413763D1*
Y-444227D1*
X1325523Y-462337D1*
X1319346Y-474550D1*
X1307273Y-486623D1*
X1295059Y-492800D1*
X1270773D1*
X1258700Y-486623D1*
X1246486Y-474550D1*
X1240450Y-462337D1*
X1201234Y-389617D2*
X1189021Y-383440D1*
X1170771Y-365331D1*
Y-492800D1*
X1058695Y-383440D2*
X1064732Y-371367D1*
X1082982Y-365331D1*
X1095055D1*
X1113305Y-371367D1*
X1125518Y-389617D1*
X1131555Y-419940D1*
Y-450263D1*
X1125518Y-474550D1*
X1113305Y-486763D1*
X1095055Y-492800D1*
X1089018D1*
X1070909Y-486763D1*
X1058695Y-474550D1*
X1052659Y-456300D1*
Y-450263D1*
X1058695Y-432013D1*
X1070909Y-419940D1*
X1089018Y-413904D1*
X1095055D1*
X1113305Y-419940D1*
X1125518Y-432013D1*
X1131555Y-450263D1*
X1415186Y1436695D2*
Y1309085D1*
X1372650D1*
X1354400Y1315262D1*
X1342186Y1327335D1*
X1336150Y1339549D1*
X1330113Y1357658D1*
Y1388122D1*
X1336150Y1406372D1*
X1342186Y1418445D1*
X1354400Y1430658D1*
X1372650Y1436695D1*
X1415186D1*
X1290897Y1412268D2*
X1278684Y1418445D1*
X1260434Y1436555D1*
Y1309085D1*
X1430371Y809855D2*
Y682245D1*
X1387834D1*
X1369584Y688422D1*
X1357371Y700495D1*
X1351334Y712709D1*
X1345298Y730818D1*
Y761282D1*
X1351334Y779532D1*
X1357371Y791605D1*
X1369584Y803818D1*
X1387834Y809855D1*
X1430371D1*
X1293869Y809715D2*
X1227186D1*
X1263546Y761141D1*
X1245296D1*
X1233223Y755105D1*
X1227186Y749068D1*
X1221009Y730818D1*
Y718745D1*
X1227186Y700495D1*
X1239259Y688282D1*
X1257509Y682245D1*
X1275759D1*
X1293869Y688282D1*
X1299905Y694459D1*
X1306082Y706532D1*
X-1873453Y-782071D2*
X-1885667Y-769998D1*
X-1891703Y-751748D1*
Y-727461D1*
X-1885667Y-709211D1*
X-1873453Y-696998D1*
X-1861380D1*
X-1849167Y-703175D1*
X-1843130Y-709211D1*
X-1837094Y-721285D1*
X-1824880Y-757785D1*
X-1818844Y-769998D1*
X-1812667Y-776035D1*
X-1800594Y-782071D1*
X-1782344D1*
X-1770271Y-769998D1*
X-1764094Y-751748D1*
Y-727461D1*
X-1770271Y-709211D1*
X-1782344Y-696998D1*
X-1891703Y-821287D2*
X-1764094Y-851750D1*
X-1891703Y-882073D1*
X-1764094Y-912396D1*
X-1891703Y-942860D1*
Y-982075D2*
X-1764094D1*
X-1764093Y-1024612D1*
X-1770270Y-1042862D1*
X-1782344Y-1055075D1*
X-1794557Y-1061112D1*
X-1812667Y-1067148D1*
X-1843130D1*
X-1861380Y-1061112D1*
X-1873453Y-1055075D1*
X-1885667Y-1042862D1*
X-1891703Y-1024612D1*
Y-982075D1*
X1750078Y2156447D2*
X1695468D1*
X1677218Y2162624D1*
X1671041Y2168660D1*
X1665005Y2180733D1*
Y2192947D1*
X1671041Y2205020D1*
X1677218Y2211197D1*
X1695468Y2217233D1*
X1750078D1*
Y2089624D1*
X1707541Y2156447D2*
X1665005Y2089624D1*
X1613575Y2217093D2*
X1546893D1*
X1583252Y2168520D1*
X1565002D1*
X1552929Y2162483D1*
X1546893Y2156447D1*
X1540716Y2138197D1*
Y2126124D1*
X1546893Y2107874D1*
X1558966Y2095660D1*
X1577216Y2089624D1*
X1595466D1*
X1613575Y2095660D1*
X1619612Y2101837D1*
X1625789Y2113910D1*
X2511420Y2051283D2*
Y1996673D1*
X2505243Y1978423D1*
X2499207Y1972246D1*
X2487134Y1966210D1*
X2474920D1*
X2462847Y1972246D1*
X2456670Y1978423D1*
X2450634Y1996673D1*
Y2051283D1*
X2578243D1*
X2511420Y2008746D2*
X2578243Y1966209D1*
Y1866207D2*
X2450774Y1866208D1*
X2535707Y1926994D1*
X2535706Y1835884D1*
X-1012199Y1126473D2*
X-1066809D1*
X-1085059Y1132650D1*
X-1091236Y1138687D1*
X-1097272Y1150760D1*
Y1162973D1*
X-1091236Y1175046D1*
X-1085059Y1181223D1*
X-1066809Y1187260D1*
X-1012199D1*
Y1059650D1*
X-1054736Y1126473D2*
X-1097272Y1059650D1*
X-1209347Y1187120D2*
X-1148701D1*
X-1142665Y1132510D1*
X-1148701Y1138546D1*
X-1166951Y1144723D1*
X-1185061D1*
X-1203311Y1138546D1*
X-1215524Y1126473D1*
X-1221561Y1108223D1*
Y1096150D1*
X-1215524Y1077900D1*
X-1203311Y1065687D1*
X-1185061Y1059650D1*
X-1166951D1*
X-1148701Y1065687D1*
X-1142665Y1071864D1*
X-1136488Y1083937D1*
X-1013898Y928127D2*
X-1068507D1*
X-1086757Y934304D1*
X-1092934Y940340D1*
X-1098971Y952413D1*
Y964627D1*
X-1092934Y976700D1*
X-1086757Y982877D1*
X-1068507Y988913D1*
X-1013898D1*
Y861304D1*
X-1056434Y928127D2*
X-1098971Y861304D1*
X-1211046Y970663D2*
X-1205009Y982736D1*
X-1186759Y988773D1*
X-1174686D1*
X-1156436Y982736D1*
X-1144223Y964486D1*
X-1138186Y934163D1*
Y903840D1*
X-1144223Y879554D1*
X-1156436Y867340D1*
X-1174686Y861304D1*
X-1180723D1*
X-1198832Y867340D1*
X-1211046Y879554D1*
X-1217082Y897804D1*
Y903840D1*
X-1211046Y922090D1*
X-1198832Y934163D1*
X-1180723Y940200D1*
X-1174686D1*
X-1156436Y934163D1*
X-1144223Y922090D1*
X-1138186Y903840D1*
X-1017349Y728193D2*
X-1071959D1*
X-1090209Y734370D1*
X-1096386Y740407D1*
X-1102422Y752480D1*
Y764693D1*
X-1096386Y776766D1*
X-1090209Y782943D1*
X-1071959Y788980D1*
X-1017349D1*
Y661370D1*
X-1059886Y728193D2*
X-1102422Y661370D1*
X-1165924D2*
X-1226711Y788840D1*
X-1141638D1*
X104681Y3135987D2*
Y3044877D1*
X98644Y3026627D1*
X86431Y3014554D1*
X68181Y3008377D1*
X56108D1*
X37858Y3014554D1*
X25644Y3026627D1*
X19608Y3044877D1*
Y3135987D1*
X-25785Y3105523D2*
Y3111560D1*
X-31821Y3123773D1*
X-37858Y3129810D1*
X-50071Y3135846D1*
X-74358D1*
X-86431Y3129810D1*
X-92467Y3123773D1*
X-98644Y3111560D1*
Y3099487D1*
X-92467Y3087273D1*
X-80394Y3069164D1*
X-19608Y3008377D1*
X-104681D1*
X104681Y-664013D2*
Y-755123D1*
X98644Y-773373D1*
X86431Y-785446D1*
X68181Y-791623D1*
X56108D1*
X37858Y-785446D1*
X25644Y-773373D1*
X19608Y-755123D1*
Y-664013D1*
X-92467Y-664154D2*
X-31821D1*
X-25785Y-718763D1*
X-31821Y-712727D1*
X-50071Y-706550D1*
X-68181D1*
X-86431Y-712727D1*
X-98644Y-724800D1*
X-104681Y-743050D1*
Y-755123D1*
X-98644Y-773373D1*
X-86431Y-785586D1*
X-68181Y-791623D1*
X-50071D1*
X-31821Y-785586D1*
X-25785Y-779410D1*
X-19608Y-767336D1*
X1665768Y444346D2*
X1793378D1*
X1665768Y486882D2*
Y401809D1*
Y320057D2*
X1793378D1*
X1665768Y362593D2*
Y277520D1*
X1732591Y238305D2*
Y183555D1*
X1726555Y165445D1*
X1720378Y159268D1*
X1708305Y153232D1*
X1690055D1*
X1677982Y159268D1*
X1671805Y165445D1*
X1665768Y183555D1*
Y238305D1*
X1793378D1*
X1696232Y107839D2*
X1690195D1*
X1677982Y101802D1*
X1671945Y95766D1*
X1665909Y83552D1*
Y59266D1*
X1671945Y47193D1*
X1677982Y41156D1*
X1690195Y34979D1*
X1702268D1*
X1714482Y41156D1*
X1732591Y53229D1*
X1793378Y114016D1*
Y28943D1*
X1696232Y-16450D2*
X1690195D1*
X1677982Y-22486D1*
X1671945Y-28523D1*
X1665909Y-40736D1*
Y-65023D1*
X1671945Y-77096D1*
X1677982Y-83132D1*
X1690195Y-89309D1*
X1702268D1*
X1714482Y-83132D1*
X1732591Y-71059D1*
X1793378Y-10273D1*
Y-95346D1*
X1665908Y-146775D2*
Y-213458D1*
X1714482Y-177098D1*
Y-195348D1*
X1720518Y-207421D1*
X1726555Y-213458D1*
X1744805Y-219634D1*
X1756878D1*
X1775128Y-213458D1*
X1787341Y-201384D1*
X1793378Y-183135D1*
Y-164885D1*
X1787341Y-146775D1*
X1781164Y-140738D1*
X1769091Y-134562D1*
X711991Y-198880D2*
X718027Y-186807D1*
X730241Y-174593D1*
X742314Y-168557D1*
X766600D1*
X778814Y-174593D1*
X790887Y-186807D1*
X797064Y-198880D1*
X803100Y-217130D1*
Y-247593D1*
X797064Y-265703D1*
X790887Y-277916D1*
X778814Y-289989D1*
X766600Y-296166D1*
X742314D1*
X730241Y-289989D1*
X718027Y-277916D1*
X711991Y-265703D1*
X611988Y-296166D2*
Y-168697D1*
X672775Y-253630D1*
X581665D1*
X553190Y2382630D2*
D54*
Y2280542D1*
X485131Y2382630D2*
Y2280542D1*
X553190Y2334001D2*
X485131D1*
X424559Y2382630D2*
X434330Y2377801D1*
X443988Y2368030D1*
X448930Y2358371D1*
X453759Y2343771D1*
Y2319401D1*
X448930Y2304913D1*
X443988Y2295142D1*
X434330Y2285484D1*
X424559Y2280542D1*
X405130D1*
X395471Y2285484D1*
X385700Y2295142D1*
X380871Y2304913D1*
X376042Y2319401D1*
Y2343771D1*
X380871Y2358371D1*
X385700Y2368030D1*
X395471Y2377801D1*
X405130Y2382630D1*
X424559D1*
X344669D2*
Y2280542D1*
X286382D1*
X255009Y2382630D2*
X216151Y2334001D1*
Y2280542D1*
X177292Y2382630D2*
X216151Y2334001D1*
X145920Y2382630D2*
Y2280542D1*
X85347Y2382630D2*
X95118Y2377801D1*
X104776Y2368030D1*
X109718Y2358371D1*
X114547Y2343771D1*
Y2319401D1*
X109718Y2304913D1*
X104776Y2295142D1*
X95118Y2285484D1*
X85347Y2280542D1*
X65918D1*
X56259Y2285484D1*
X46489Y2295142D1*
X41659Y2304913D1*
X36830Y2319401D1*
Y2343771D1*
X41659Y2358371D1*
X46489Y2368030D1*
X56259Y2377801D1*
X65918Y2382630D1*
X85347D1*
X-28572D2*
Y2280542D1*
X5458Y2382630D2*
X-62601D1*
X-93973Y2331530D2*
X-150127D1*
X-181500Y2363088D2*
X-191271Y2368030D1*
X-205871Y2382518D1*
Y2280542D1*
X-256672D2*
X-305302Y2382518D1*
X-237243D1*
X-336674Y2363088D2*
X-346445Y2368030D1*
X-361045Y2382518D1*
Y2280542D1*
X-421617Y2382518D2*
X-407017Y2377688D1*
X-397247Y2363088D1*
X-392417Y2338830D1*
Y2324230D1*
X-397247Y2299971D1*
X-407017Y2285371D1*
X-421617Y2280542D1*
X-431276D1*
X-445876Y2285371D1*
X-455534Y2299971D1*
X-460476Y2324230D1*
Y2338830D1*
X-455534Y2363088D1*
X-445876Y2377688D1*
X-431276Y2382518D1*
X-421617D1*
X-455534Y2363088D2*
X-397247Y2299971D1*
X-501619Y2382518D2*
X-554965D1*
X-525878Y2343659D1*
X-540478D1*
X-550136Y2338830D1*
X-554965Y2334001D1*
X-559907Y2319401D1*
Y2309742D1*
X-554965Y2295142D1*
X-545307Y2285371D1*
X-530707Y2280542D1*
X-516107D1*
X-501619Y2285371D1*
X-496790Y2290313D1*
X-491848Y2299971D1*
M02*
