G04 DipTrace 3.2.0.1*
G04 Нижний.gbr*
%MOMM*%
G04 #@! TF.FileFunction,Copper,L2,Bot*
G04 #@! TF.Part,Single*
%AMOUTLINE0*
4,1,4,
0.37427,-0.75037,
-0.37577,-0.74963,
-0.37427,0.75037,
0.37577,0.74963,
0.37427,-0.75037,
0*%
%AMOUTLINE6*
4,1,4,
0.54997,-0.30007,
0.55003,0.29993,
-0.54997,0.30007,
-0.55003,-0.29993,
0.54997,-0.30007,
0*%
%ADD29C,0.9*%
%ADD30C,0.3*%
G04 #@! TA.AperFunction,Conductor*
%ADD10C,0.25*%
%ADD13C,0.4*%
%ADD14C,0.5*%
%ADD15C,0.6*%
%ADD16C,0.35*%
%ADD17R,1.1X1.0*%
%ADD18R,3.4X1.9*%
%ADD19R,1.0X1.1*%
%ADD20R,1.0X1.0*%
%ADD22R,0.6X0.6*%
%ADD24R,0.7X1.5*%
%ADD25R,1.5X0.7*%
%ADD26R,1.4X1.6*%
G04 #@! TA.AperFunction,ComponentPad*
%ADD27C,2.3*%
G04 #@! TA.AperFunction,ViaPad*
%ADD31C,0.7*%
%ADD55OUTLINE0*%
%ADD61OUTLINE6*%
%FSLAX35Y35*%
G04*
G71*
G90*
G75*
G01*
G04 Bottom*
%LPD*%
X-86657Y-132897D2*
D10*
X-1370953D1*
X-1400827Y-162770D1*
Y-720130D1*
X-1403863Y-723167D1*
X-1400560Y-230147D2*
Y-157480D1*
X-1375977Y-132897D1*
X-1370953D1*
X495000Y725000D2*
D13*
Y672040D1*
X499893Y667147D1*
Y569713D1*
X593560Y476047D1*
X784663D1*
X2851277Y2618227D2*
D10*
X2676773D1*
X2675000Y2620000D1*
X2025000D2*
Y2624613D1*
X2670387D1*
X2675000Y2620000D1*
X1726663Y2627430D2*
X2017570D1*
X2025000Y2620000D1*
X1732730Y559783D2*
D14*
X1988403D1*
D10*
X2007323Y578703D1*
X1244485Y151534D2*
X1334199D1*
X1337988D1*
X1374014Y115508D1*
Y-191152D1*
X1354229Y-210936D1*
X1279614D1*
X1274938Y-206260D1*
X1732730Y559783D2*
X1742449D1*
X1334199Y151534D1*
X-2024237Y1731510D2*
Y1887523D1*
X-2028057Y1891343D1*
X1575000Y-1523000D2*
D15*
X1848620D1*
X2040387Y-1331233D1*
Y545640D1*
X2007323Y578703D1*
X1575000Y-1777000D2*
X1832370D1*
X2040387Y-1568983D1*
Y-1331233D1*
X-100503Y125533D2*
D10*
X-768030D1*
X-1399247Y756750D1*
Y988483D1*
X-1336487Y1051243D1*
X-1206723D1*
X-1205800Y1050317D1*
X93320Y128610D2*
X-10713Y232643D1*
X-749620D1*
X-1201310Y684333D1*
Y839353D1*
X-1212340Y850383D1*
X-1207190Y1248663D2*
X-1370597D1*
X-1532333Y1086927D1*
Y742350D1*
X-810501Y20518D1*
X-58558D1*
X97543Y-135583D1*
X499207Y253860D2*
D16*
X700167D1*
X967198D1*
D10*
X974495Y246564D1*
X700167Y121675D2*
Y253860D1*
X974485Y151564D2*
X867885D1*
X830293Y113972D1*
Y-38325D1*
Y-173406D1*
X863147Y-206260D1*
X1114938D1*
Y-309602D1*
X1112181Y-312360D1*
X2694753Y1696930D2*
Y1692430D1*
X2689833Y1687510D1*
Y1861797D1*
X2686620Y1858583D1*
X675000Y950000D2*
D13*
X949937Y949520D1*
D10*
D3*
X2694753Y1696930D2*
Y1002137D1*
X2658477Y965860D1*
X2010167D1*
X2007323Y968703D1*
X-1404237Y-1100167D2*
D15*
X416115D1*
X1112181Y-404101D1*
Y-312360D1*
X-1838977Y2621703D2*
D10*
X-2023297D1*
X-2025000Y2620000D1*
X-2675000D1*
X-1404237Y-1100167D2*
Y-1479237D1*
D15*
X-1575000Y-1650000D1*
X-1404237Y-1479237D2*
X37045D1*
X416115Y-1100167D1*
X700167Y-38325D2*
D10*
X830293D1*
X-275000Y725000D2*
Y475157D1*
X-117777Y317933D1*
X53690D1*
X231750Y139873D1*
Y-430580D1*
X-222287Y-884617D1*
X-1633357D1*
X-1657867Y-860107D1*
Y-722917D1*
X974471Y56564D2*
X1080954D1*
X1106924Y82534D1*
Y533270D1*
X1304983Y731330D1*
X1408660D1*
X1529017D1*
X1553463Y755777D1*
Y916493D1*
X1535213Y934743D1*
X1473120D1*
X1408660Y727230D2*
Y731330D1*
X675000Y1940000D2*
X695227D1*
X703917Y1948690D1*
X1412980D1*
X1414353Y1950063D1*
X1250250Y1177883D2*
Y1057560D1*
Y934743D1*
X1253120D1*
X675000Y1060000D2*
X1079000Y1057560D1*
X1250250D1*
X2025000Y2280000D2*
X2675000D1*
X2686620Y2028583D2*
Y2014873D1*
X2683547Y2011800D1*
Y2271453D1*
X2675000Y2280000D1*
X1725087Y2278637D2*
X2023637D1*
X2025000Y2280000D1*
X-675000Y1060000D2*
X-1026117D1*
X-1035800Y1050317D1*
X675000Y2160000D2*
X1555087D1*
Y2278637D1*
X1556663Y2627430D2*
X1550217D1*
X1537733Y2614943D1*
Y2295993D1*
X1555087Y2278637D1*
X1470250Y1177883D2*
X1522093D1*
X1556583Y1212373D1*
Y2277143D1*
X1555087Y2278637D1*
X-675000Y950000D2*
X-843400D1*
X-943017Y850383D1*
X-1042340D1*
X-675000Y1170000D2*
X-853110D1*
X-937600Y1254490D1*
X-1031363D1*
X-1037190Y1248663D1*
X-165000Y725000D2*
Y477267D1*
X-78207Y390473D1*
X86667D1*
X317483Y159657D1*
Y-443770D1*
X-183317Y-944570D1*
X-1633357D1*
X-1658237Y-969450D1*
Y-1099917D1*
X-1530867Y-723043D2*
Y586063D1*
X-1644130Y699327D1*
Y1170013D1*
X-1099760Y1714383D1*
X-680617D1*
X-675000Y1720000D1*
X-1531233Y-1100040D2*
Y-1223967D1*
X-1562503Y-1255237D1*
X-1859543D1*
X-1949943Y-1164833D1*
Y1013327D1*
X-1137773Y1825497D1*
X-670497D1*
X-675000Y1830000D1*
X-2028057Y2061343D2*
Y2276943D1*
X-2025000Y2280000D1*
X-675000Y1610000D2*
X-1004550D1*
X-1011493Y1603057D1*
X-1838977Y2278773D2*
X-2023773D1*
X-2025000Y2280000D2*
X-2675000D1*
D29*
X784663Y476047D3*
D3*
X97543Y-135583D3*
X-86657Y-132897D3*
X-100503Y125533D3*
X93320Y128610D3*
X1414353Y1950063D3*
D31*
X499207Y253860D3*
D29*
X1408660Y727230D3*
X949937Y949520D3*
X1112181Y-312360D3*
X2851277Y2618227D3*
X1732730Y559783D3*
X2694753Y1696930D3*
X-1400560Y-230147D3*
X-2024237Y1731510D3*
X-1011493Y1603057D3*
X-1838977Y2621703D3*
Y2278773D3*
D17*
X1556663Y2627430D3*
X1726663D3*
D18*
X2007323Y578703D3*
Y968703D3*
D19*
X-2028057Y2061343D3*
Y1891343D3*
D20*
X1274938Y-206260D3*
X1114938D3*
D22*
X1250250Y1177883D3*
X1470250D3*
X1253120Y934743D3*
X1473120D3*
D55*
X-1403863Y-723167D3*
X-1530867Y-723043D3*
X-1657867Y-722917D3*
X-1404237Y-1100167D3*
X-1531233Y-1100040D3*
X-1658237Y-1099917D3*
D17*
X1555087Y2278637D3*
X1725087D3*
D19*
X2686620Y2028583D3*
Y1858583D3*
D17*
X-1207190Y1248663D3*
X-1037190D3*
X-1205800Y1050317D3*
X-1035800D3*
X-1212340Y850383D3*
X-1042340D3*
D24*
X495000Y725000D3*
X385000D3*
X275000D3*
X165000D3*
X55000D3*
X-60000D3*
X-165000D3*
X-275000D3*
X-385000D3*
X-495000D3*
D25*
X-675000Y950000D3*
Y1060000D3*
Y1170000D3*
Y1280000D3*
Y1390000D3*
Y1500000D3*
Y1610000D3*
Y1720000D3*
Y1830000D3*
Y1940000D3*
Y2050000D3*
Y2160000D3*
X675000Y950000D3*
Y1060000D3*
Y1170000D3*
Y1280000D3*
Y1390000D3*
Y1500000D3*
Y1610000D3*
Y1720000D3*
Y1830000D3*
Y1940000D3*
Y2050000D3*
Y2160000D3*
D26*
X-2675000Y2620000D3*
Y2280000D3*
X-2025000D3*
Y2620000D3*
X2025000D3*
Y2280000D3*
X2675000D3*
Y2620000D3*
D27*
X-1575000Y-1650000D3*
X1575000Y-1523000D3*
Y-1777000D3*
D61*
X974471Y56564D3*
X974485Y151564D3*
X974495Y246564D3*
X1244495Y246534D3*
X1244485Y151534D3*
X1244471Y56534D3*
D20*
X700167Y121675D3*
Y-38325D3*
G04 Bottom Clear*
%LPC*%
D30*
X784663Y476047D3*
D3*
X97543Y-135583D3*
X-86657Y-132897D3*
X-100503Y125533D3*
X93320Y128610D3*
X1414353Y1950063D3*
X499207Y253860D3*
X1408660Y727230D3*
X949937Y949520D3*
X1112181Y-312360D3*
X2851277Y2618227D3*
X1732730Y559783D3*
X2694753Y1696930D3*
X-1400560Y-230147D3*
X-2024237Y1731510D3*
X-1011493Y1603057D3*
X-1838977Y2621703D3*
Y2278773D3*
D29*
X-1575000Y-1650000D3*
X1575000Y-1523000D3*
Y-1777000D3*
M02*
