G04 DipTrace 3.2.0.1*
G04 Нижняямаска.gbr*
%MOMM*%
G04 #@! TF.FileFunction,Soldermask,Bot*
G04 #@! TF.Part,Single*
%AMOUTLINE1*
4,1,4,
0.47417,-0.85046,
-0.47587,-0.84954,
-0.47417,0.85046,
0.47587,0.84954,
0.47417,-0.85046,
0*%
%AMOUTLINE7*
4,1,4,
0.64996,-0.40008,
0.65004,0.39992,
-0.64996,0.40008,
-0.65004,-0.39992,
0.64996,-0.40008,
0*%
%ADD34C,2.5*%
%ADD36R,1.6X1.8*%
%ADD38R,1.7X0.9*%
%ADD40R,0.9X1.7*%
%ADD44R,0.8X0.8*%
%ADD46R,1.2X1.2*%
%ADD47R,1.2X1.3*%
%ADD49R,3.6X2.1*%
%ADD51R,1.3X1.2*%
%ADD56OUTLINE1*%
%ADD62OUTLINE7*%
%FSLAX35Y35*%
G04*
G71*
G90*
G75*
G01*
G04 BotMask*
%LPD*%
D51*
X1556663Y2627430D3*
X1726663D3*
D49*
X2007323Y578703D3*
Y968703D3*
D47*
X-2028057Y2061343D3*
Y1891343D3*
D46*
X1274938Y-206260D3*
X1114938D3*
D44*
X1250250Y1177883D3*
X1470250D3*
X1253120Y934743D3*
X1473120D3*
D56*
X-1403863Y-723167D3*
X-1530867Y-723043D3*
X-1657867Y-722917D3*
X-1404237Y-1100167D3*
X-1531233Y-1100040D3*
X-1658237Y-1099917D3*
D51*
X1555087Y2278637D3*
X1725087D3*
D47*
X2686620Y2028583D3*
Y1858583D3*
D51*
X-1207190Y1248663D3*
X-1037190D3*
X-1205800Y1050317D3*
X-1035800D3*
X-1212340Y850383D3*
X-1042340D3*
D40*
X495000Y725000D3*
X385000D3*
X275000D3*
X165000D3*
X55000D3*
X-60000D3*
X-165000D3*
X-275000D3*
X-385000D3*
X-495000D3*
D38*
X-675000Y950000D3*
Y1060000D3*
Y1170000D3*
Y1280000D3*
Y1390000D3*
Y1500000D3*
Y1610000D3*
Y1720000D3*
Y1830000D3*
Y1940000D3*
Y2050000D3*
Y2160000D3*
X675000Y950000D3*
Y1060000D3*
Y1170000D3*
Y1280000D3*
Y1390000D3*
Y1500000D3*
Y1610000D3*
Y1720000D3*
Y1830000D3*
Y1940000D3*
Y2050000D3*
Y2160000D3*
D36*
X-2675000Y2620000D3*
Y2280000D3*
X-2025000D3*
Y2620000D3*
X2025000D3*
Y2280000D3*
X2675000D3*
Y2620000D3*
D34*
X-1575000Y-1650000D3*
X1575000Y-1523000D3*
Y-1777000D3*
D62*
X974471Y56564D3*
X974485Y151564D3*
X974495Y246564D3*
X1244495Y246534D3*
X1244485Y151534D3*
X1244471Y56534D3*
D46*
X700167Y121675D3*
Y-38325D3*
M02*
